# xmcd
#
# Track frame offsets: 
#        150
#        19652
#        45028
#        63124
#        81451
#        100791
#        117597
#        133876
#        156098
#        174305
#        191866
#        208524
#        224992
#
# Disc length: 3278 seconds
#
# Revision: 0
# Processed by: cddbd v1.5.2PL0 Copyright (c) Steve Scherf et al.
# Submitted via: ExactAudioCopy v1.0b1
#
DISCID=b90ccc0d
DTITLE=Laith Al-Deen - Der Letzte Deiner Art
DYEAR=2012
DGENRE=Pop
TTITLE0=01 Gib dich frei
TTITLE1=02 Lied für die Welt
TTITLE2=03 Sicher sein
TTITLE3=04 Sterne
TTITLE4=05 Wieder tun
TTITLE5=06 Nur einen Meter
TTITLE6=07 Der letzte Deiner Art
TTITLE7=08 Wir werden mehr
TTITLE8=09 Diesmal
TTITLE9=10 Dreh Dich nicht um
TTITLE10=11 Traum
TTITLE11=12 Wiedergeboren
TTITLE12=13 Sie träumt
EXTD=
EXTT0=
EXTT1=
EXTT2=
EXTT3=
EXTT4=
EXTT5=
EXTT6=
EXTT7=
EXTT8=
EXTT9=
EXTT10=
EXTT11=
EXTT12=
PLAYORDER=
